<svg width="1280" height="420" viewBox="0 0 1280 420" fill="none" xmlns="http://www.w3.org/2000/svg">
  <rect width="1280" height="420" fill="#0F172A"/>
  <rect x="72" y="64" width="1136" height="292" rx="28" fill="#111C31"/>
  <circle cx="1044" cy="92" r="154" fill="#0D9488" opacity="0.22"/>
  <circle cx="1110" cy="334" r="118" fill="#16A34A" opacity="0.18"/>
  <path d="M112 210C112 154.772 156.772 110 212 110H320C375.228 110 420 154.772 420 210C420 265.228 375.228 310 320 310H212C156.772 310 112 265.228 112 210Z" fill="#0D9488"/>
  <path d="M248 158H284V198H324V234H284V274H248V234H208V198H248V158Z" fill="white"/>
  <text x="468" y="170" fill="white" font-family="Arial, sans-serif" font-size="52" font-weight="700">Community Health Record System</text>
  <text x="470" y="224" fill="#A7F3D0" font-family="Arial, sans-serif" font-size="24">Patient records, appointments, prescriptions, and billing for rural clinics.</text>
  <rect x="470" y="258" width="156" height="44" rx="22" fill="#0D9488"/>
  <text x="494" y="288" fill="white" font-family="Arial, sans-serif" font-size="18" font-weight="700">Next.js 14</text>
  <rect x="646" y="258" width="150" height="44" rx="22" fill="#1E293B"/>
  <text x="670" y="288" fill="white" font-family="Arial, sans-serif" font-size="18" font-weight="700">Supabase</text>
  <rect x="816" y="258" width="122" height="44" rx="22" fill="#1E293B"/>
  <text x="842" y="288" fill="white" font-family="Arial, sans-serif" font-size="18" font-weight="700">Vercel</text>
</svg>
